PathFileType	4	(X/Y/Z)	C:/Users/opensim2020/Desktop/walking_exp_matlab/subject06_walking20_straight_03.trc																																																																																																																															
DataRate	CameraRate	NumFrames	NumMarkers	Units	OrigDataRate	OrigDataStartFrame	OrigNumFrames																																																																																																																											
100	100	4	43	mm	100	1763	132																																																																																																																											
Frame#	Time	LFHD			RFHD			LBHD			RBHD			C7			T10			CLAV			STRN			RBAK			LSHO			LUPA			LELB			LFRM			LWRA			LWRB			LFIN			RSHO			RUPA			RELB			RFRM			RWRA			RWRB			RFIN			LASI			RASI			LPSI			RPSI			LTHI			LKNE			LTIB			LANK			LHEE			LTOE			RTHI			RKNE			RTIB			RANK			RHEE			RTOE			*39			*40			*41			*42		
		X1	Y1	Z1	X2	Y2	Z2	X3	Y3	Z3	X4	Y4	Z4	X5	Y5	Z5	X6	Y6	Z6	X7	Y7	Z7	X8	Y8	Z8	X9	Y9	Z9	X10	Y10	Z10	X11	Y11	Z11	X12	Y12	Z12	X13	Y13	Z13	X14	Y14	Z14	X15	Y15	Z15	X16	Y16	Z16	X17	Y17	Z17	X18	Y18	Z18	X19	Y19	Z19	X20	Y20	Z20	X21	Y21	Z21	X22	Y22	Z22	X23	Y23	Z23	X24	Y24	Z24	X25	Y25	Z25	X26	Y26	Z26	X27	Y27	Z27	X28	Y28	Z28	X29	Y29	Z29	X30	Y30	Z30	X31	Y31	Z31	X32	Y32	Z32	X33	Y33	Z33	X34	Y34	Z34	X35	Y35	Z35	X36	Y36	Z36	X37	Y37	Z37	X38	Y38	Z38	X39	Y39	Z39	X40	Y40	Z40	X41	Y41	Z41	X42	Y42	Z42	X43	Y43	Z43
																																																																																																																																		
83	0.82	168.61478	1651.78784	-1065.48865	152.41585	1637.85938	-934.92987	36.75709	1599.8595	-1084.11609	22.02124	1590.2959	-956.07312	26.22136	1440.74829	-1025.93652	-12.31159	1111.40869	-1009.85449	134.49895	1360.56348	-1015.85107	171.98375	1185.05774	-1015.16022	-55.35383	1272.66736	-945.91284	89.10765	1389.37524	-1182.30652	51.49253	1192.81714	-1257.43359	17.66331	1085.78333	-1271.44983	3.36915	938.69043	-1303.43018	30.6377	808.49829	-1268.45947	-26.08272	824.40515	-1309.35559	-15.09308	733.271	-1311.57129	78.33347	1397.93176	-858.30804	19.47195	1208.47668	-766.37317	21.84765	1087.32373	-748.36157	59.11883	974.64136	-731.07104	153.66107	859.92993	-763.0979	99.13132	843.99225	-727.67072	155.12172	783.09045	-723.41467	173.9501	958.28662	-1110.39832	153.9292	947.26434	-891.97955	13.82816	983.12122	-1096.73511	5.68086	972.53369	-928.64008	159.23448	648.02533	-1174.31934	195.10028	491.30981	-1140.99146	165.88539	234.66135	-1132.49524	157.91754	64.54509	-1087.69189	112.18959	51.8547	-1046.44507	300.2507	36.47777	-1070.44714	125.82624	607.19794	-844.28455	151.58765	483.12057	-857.19769	-39.94449	322.06049	-873.05554	-194.64404	227.45282	-923.53986	-231.66798	248.44824	-969.98743	-156.84319	73.86931	-926.69781	62.49767	1690.28918	-1018.42859	NaN	NaN	NaN	NaN	NaN	NaN	NaN	NaN	NaN
84	0.83	182.84697	1654.3905	-1065.05347	166.50439	1640.41577	-934.59637	51.0541	1602.45898	-1083.96399	36.11824	1592.73694	-955.93042	40.53159	1443.21838	-1026.1228	1.99442	1114.07458	-1010.75531	148.80432	1363.20581	-1015.78723	186.26683	1187.73474	-1015.26239	-41.20681	1275.125	-947.09491	103.77796	1392.16895	-1182.31775	70.05767	1194.78687	-1257.69141	38.71596	1087.14294	-1272.3219	28.15364	939.66205	-1304.15466	58.11558	810.27594	-1269.02209	1.19386	824.64148	-1310.16248	15.198	734.19647	-1313.1626	92.0202	1400.3606	-858.4223	32.19178	1210.7074	-767.51715	34.27643	1089.16248	-750.0434	68.22196	974.97858	-732.78632	158.66953	856.87738	-764.6579	103.69757	842.9281	-729.14032	157.44624	779.89606	-725.12256	188.05882	960.6073	-1110.57983	168.2879	950.54742	-892.37872	28.1988	985.75543	-1097.27283	20.17264	975.12085	-929.59241	167.97774	649.40399	-1174.47156	199.83801	491.23456	-1141.69885	167.20764	234.70549	-1133.14941	157.68549	64.65782	-1087.71619	111.94854	51.81756	-1046.39685	300.05362	36.4375	-1070.47241	147.51431	611.5282	-844.95764	177.13795	488.48993	-858.68561	-9.76876	323.29437	-872.93433	-162.78313	224.03748	-922.36475	-201.64018	242.85181	-968.92938	-116.62109	73.85191	-924.06927	76.60155	1692.81897	-1018.16437	NaN	NaN	NaN	NaN	NaN	NaN	NaN	NaN	NaN
85	0.84	197.12935	1656.98792	-1064.4729	180.53096	1642.70715	-934.06073	65.3493	1605.0636	-1083.70984	50.06578	1595.03967	-955.71411	54.72676	1445.59644	-1026.26001	16.42245	1116.58655	-1011.82202	162.97154	1365.72498	-1015.71069	200.5448	1190.34851	-1015.38806	-27.05856	1277.50708	-948.06061	118.36736	1394.99792	-1182.23706	88.54726	1196.96143	-1257.80566	59.9239	1088.56006	-1273.05432	53.49604	940.8725	-1304.58093	86.33038	812.48596	-1269.43176	29.18205	825.13013	-1310.73889	46.33155	735.49146	-1314.44324	105.63341	1402.68311	-858.4856	45.01143	1212.84778	-768.66406	46.61758	1091.02319	-751.86896	77.20451	975.6748	-734.5827	163.50969	854.22174	-766.13434	107.85925	842.2099	-730.63318	159.44878	777.14374	-726.80536	201.98581	962.71509	-1111.0835	182.75314	953.85632	-892.94122	42.48633	988.09082	-1097.74365	34.8899	977.89032	-930.3941	176.82767	650.43793	-1174.25757	204.72768	491.0463	-1142.2594	169.114	234.50957	-1134.12073	157.55965	64.74403	-1087.7428	111.71229	51.87739	-1046.4397	299.94522	36.45421	-1070.31177	168.97804	616.05524	-845.64563	203.09839	494.04929	-859.58362	20.06068	323.8273	-872.9281	-130.18712	219.25746	-921.41785	-170.90334	235.439	-968.14056	-74.96359	73.20934	-921.48108	90.78947	1695.33875	-1017.72314	NaN	NaN	NaN	NaN	NaN	NaN	NaN	NaN	NaN
86	0.85	211.42848	1659.18005	-1063.73755	194.59348	1644.69934	-933.46729	79.56413	1607.57458	-1083.3396	64.08431	1597.25745	-955.40509	68.91744	1447.73828	-1026.36035	30.78506	1118.95422	-1012.84253	177.12874	1368.04114	-1015.63086	214.76941	1192.75403	-1015.58716	-12.94316	1279.74719	-948.77142	133.01698	1397.74182	-1182.06348	106.89787	1199.21558	-1257.78906	81.12821	1090.23645	-1273.56042	78.87093	942.34747	-1305.15234	114.86553	814.91199	-1269.51062	57.63654	825.97034	-1311.30457	78.18938	737.16443	-1315.4386	119.31035	1404.83203	-858.578	57.96125	1214.85486	-769.67841	58.78066	1092.89307	-753.74933	86.07465	976.51642	-736.32007	168.55017	852.01764	-767.77747	112.0937	841.82257	-732.06616	161.16736	774.65558	-728.19843	215.69818	964.4599	-1112.03149	197.48985	957.08563	-893.84521	56.65839	990.12897	-1098.14526	49.22785	980.67267	-930.74438	185.52132	650.8999	-1174.23462	209.70654	490.68872	-1142.6936	171.66092	234.3829	-1134.71533	157.70451	64.87514	-1087.83643	111.70448	52.01241	-1046.58289	299.9519	36.36219	-1070.07117	190.25218	620.60455	-846.28967	227.73779	499.72009	-860.99878	49.67225	323.64975	-873.09314	-97.00674	213.12306	-920.61615	-139.31215	226.29834	-967.46472	-31.29254	72.73729	-918.27985	105.08754	1697.6499	-1017.1322	NaN	NaN	NaN	NaN	NaN	NaN	NaN	NaN	NaN
